#!OML:ASF X:\für Bonn\!DataBase\2005_08_12_Daniel\c3d\Daniel.ASF
:FULLY-SPECIFIED
:DEGREES
32
root -3.80114 14.1561 -2.66794 314.895 -80.9154 -330.8
lowerback 34.3431 -2.41041 -2.72832
upperback 3.12942 -5.14258 -3.49569
thorax -14.1925 -2.39841 -0.105916
lowerneck 1.93623 1.21134 -3.15216
upperneck 1.73648 1.52562 2.33926
head 0.166908 0.740352 1.2366
rclavicle -5.90887e-014 -3.22031e-014
rhumerus 62.6045 -17.4519 -124.435
rradius 10.184
rwrist 96.9565
rhand -19.8456 16.3988
rfingers 7.12502
rthumb 6.48889 -13.4818
lclavicle -5.90887e-014 -3.22031e-014
lhumerus 64.4115 0.904652 95.4766
lradius 6.08888
lwrist -68.0933
lhand -19.4165 2.7827
lfingers 7.12502
lthumb 6.90309 32.6501
rfemur -25.2076 -21.6647 0.158248
rtibia 86.7515
rfoot -23.507 20.2348
rtoes -7.12259
lfemur -29.3103 3.93782 -17.2569
ltibia 83.9236
lfoot -28.0454 -20.0086
ltoes 3.5975
33
root -3.78725 13.968 -2.66659 314.761 -80.9115 -331.084
lowerback 35.0362 -2.42032 -2.63757
upperback 3.26072 -5.16274 -3.48175
thorax -14.3245 -2.41357 -0.106312
lowerneck 1.86647 1.21889 -3.16885
upperneck 1.60645 1.54 2.38534
head 0.137656 0.748916 1.25388
rclavicle -9.39258e-015 -4.09496e-014
rhumerus 63.0786 -17.29 -124.662
rradius 10.2475
rwrist 97.3438
rhand -19.7489 16.2372
rfingers 7.12502
rthumb 6.58225 -13.6405
lclavicle -9.39258e-015 -4.09496e-014
lhumerus 64.8983 0.832738 95.6265
lradius 6.01365
lwrist -68.4545
lhand -19.4931 2.86693
lfingers 7.12502
lthumb 6.82917 32.7368
rfemur -26.1516 -22.3537 -0.519142
rtibia 89.1405
rfoot -23.1843 21.186
rtoes -6.68135
lfemur -30.4585 4.35423 -16.9336
ltibia 86.3083
lfoot -27.7526 -20.7739
ltoes 3.94582
34
root -3.77345 13.7765 -2.66569 314.804 -80.9005 -331.543
lowerback 35.7568 -2.45379 -2.52815
upperback 3.35959 -5.20647 -3.47123
thorax -14.5024 -2.43797 -0.108196
lowerneck 1.86416 1.24667 -3.19751
upperneck 1.47865 1.57857 2.45632
head 0.0968117 0.768888 1.28054
rclavicle 2.3059e-014 2.38542e-015
rhumerus 63.6499 -17.2872 -125.333
rradius 10.2845
rwrist 98.1482
rhand -19.6138 16.1116
rfingers 7.12502
rthumb 6.71268 -13.762
lclavicle 2.3059e-014 2.38542e-015
lhumerus 65.3046 0.798108 95.7448
lradius 6.01582
lwrist -68.8746
lhand -19.4733 2.92034
lfingers 7.12502
lthumb 6.8483 32.7896
rfemur -27.0713 -23.0779 -1.21224
rtibia 91.5087
rfoot -22.8623 22.154
rtoes -6.28662
lfemur -31.6554 4.74945 -16.5773
ltibia 88.6924
lfoot -27.4866 -21.5349
ltoes 4.18445
35
root -3.76019 13.5816 -2.6656 314.8 -80.8785 -331.957
lowerback 36.4788 -2.47952 -2.4327
upperback 3.4663 -5.24455 -3.45902
thorax -14.6648 -2.45993 -0.103435
lowerneck 1.83496 1.25904 -3.18906
upperneck 1.33673 1.59878 2.48426
head 0.0572933 0.780123 1.28742
rclavicle -7.70291e-015 3.18055e-015
rhumerus 64.4523 -17.4239 -126.429
rradius 10.2034
rwrist 99.3938
rhand -19.5729 16.0533
rfingers 7.12502
rthumb 6.7521 -13.8191
lclavicle -7.70291e-015 3.18055e-015
lhumerus 65.7031 0.762166 95.8681
lradius 6.03889
lwrist -69.2641
lhand -19.4081 2.98978
lfingers 7.12502
lthumb 6.91119 32.857
rfemur -27.9588 -23.8521 -1.95988
rtibia 93.8592
rfoot -22.608 23.084
rtoes -5.9681
lfemur -32.8665 5.15767 -16.2147
ltibia 91.0631
lfoot -27.1681 -22.3213
ltoes 4.45093
36
root -3.74595 13.3841 -2.66577 314.791 -80.8492 -332.379
lowerback 37.3091 -2.50379 -2.34947
upperback 3.48331 -5.28707 -3.42121
thorax -14.8515 -2.48201 -0.0868325
lowerneck 1.83936 1.27105 -3.21082
upperneck 1.20283 1.61667 2.51556
head 0.0143982 0.789706 1.30044
rclavicle 3.42904e-014 1.63003e-014
rhumerus 65.2424 -17.5456 -127.555
rradius 10.1211
rwrist 100.681
rhand -19.5131 15.9399
rfingers 7.12502
rthumb 6.80983 -13.9306
lclavicle 3.42904e-014 1.63003e-014
lhumerus 66.0717 0.746616 96.0006
lradius 6.08202
lwrist -69.6819
lhand -19.3211 3.03226
lfingers 7.12502
lthumb 6.99524 32.8967
rfemur -28.8064 -24.6836 -2.75154
rtibia 96.176
rfoot -22.4174 23.9516
rtoes -5.84123
lfemur -34.0844 5.57214 -15.8536
ltibia 93.4252
lfoot -26.8686 -23.0306
ltoes 4.59292
37
root -3.72988 13.183 -2.66638 314.968 -80.829 -332.984
lowerback 38.0761 -2.55326 -2.22847
upperback 3.57698 -5.34302 -3.40133
thorax -15.0382 -2.51197 -0.0756572
lowerneck 1.80171 1.28264 -3.1919
upperneck 1.09837 1.63578 2.50381
head -0.0117123 0.800238 1.29316
rclavicle -6.36111e-015 -2.22639e-014
rhumerus 66.0169 -17.5964 -128.623
rradius 10.0282
rwrist 101.823
rhand -19.478 15.8998
rfingers 7.12502
rthumb 6.84376 -13.9696
lclavicle -6.36111e-015 -2.22639e-014
lhumerus 66.4621 0.744665 96.1107
lradius 6.1019
lwrist -70.1254
lhand -19.1816 3.08167
lfingers 7.12502
lthumb 7.12987 32.9416
rfemur -29.648 -25.5514 -3.54442
rtibia 98.4791
rfoot -22.234 24.8099
rtoes -5.67782
lfemur -35.353 6.04 -15.4565
ltibia 95.7879
lfoot -26.5848 -23.6383
ltoes 4.54871
38
root -3.71294 12.979 -2.66838 314.969 -80.7915 -333.408
lowerback 38.8678 -2.59519 -2.13795
upperback 3.64375 -5.40315 -3.38945
thorax -15.2584 -2.54052 -0.0534167
lowerneck 1.88696 1.29383 -3.17497
upperneck 0.908496 1.65171 2.48306
head -0.0843898 0.808667 1.28235
rclavicle 1.19271e-014 -1.66979e-014
rhumerus 66.7356 -17.6632 -129.742
rradius 10.0054
rwrist 102.991
rhand -19.4004 15.8984
rfingers 7.12502
rthumb 6.91864 -13.9685
lclavicle 1.19271e-014 -1.66979e-014
lhumerus 66.8666 0.764148 96.2096
lradius 6.06341
lwrist -70.5037
lhand -18.9915 3.11447
lfingers 7.12502
lthumb 7.31333 32.9681
rfemur -30.4826 -26.4594 -4.4025
rtibia 100.755
rfoot -22.0817 25.6618
rtoes -5.5187
lfemur -36.6474 6.53906 -15.0948
ltibia 98.1446
lfoot -26.3843 -24.1251
ltoes 4.29134
